<svg width="129" height="26" viewBox="0 0 129 26" fill="none" xmlns="http://www.w3.org/2000/svg">
<path d="M80.8233 18.283C81.1841 18.0188 81.5102 17.6989 81.8015 17.3235C82.0929 16.9341 82.3357 16.7394 82.5299 16.7394C82.7381 16.7394 82.8421 17.0453 82.8421 17.6572C82.8421 18.2552 82.6687 18.8253 82.3218 19.3676C81.9888 19.8961 81.5448 20.3411 80.9898 20.7026C79.8521 21.4535 78.5063 21.829 76.9523 21.829C75.0653 21.829 73.6015 21.3562 72.5609 20.4106C71.5203 19.465 71 18.1509 71 16.4683C71 14.3963 71.4995 12.4286 72.4985 10.5652C72.8315 9.95332 73.2061 9.39013 73.6223 8.87561C73.3032 8.50015 73.0465 8.11079 72.8523 7.70751C72.6719 7.29034 72.5817 6.97745 72.5817 6.76886C72.5817 6.3934 72.7205 6.20567 72.998 6.20567C73.1922 6.21958 73.4142 6.35169 73.664 6.60199L74.3091 7.22776C74.4756 7.39463 74.6491 7.53369 74.8294 7.64494C76.203 6.47684 77.6807 5.89279 79.2624 5.89279C80.858 5.89279 81.8917 6.33778 82.3634 7.22776C82.5299 7.5615 82.6132 7.97173 82.6132 8.45843C82.6132 9.19545 82.2941 9.81426 81.6558 10.3149C81.0176 10.8155 80.1574 11.0658 79.0751 11.0658C78.0068 11.0658 76.8968 10.8433 75.7452 10.3983C74.7601 12.0809 74.2675 13.84 74.2675 15.6756C74.2675 18.2204 75.2804 19.4928 77.3061 19.4928C78.5548 19.4928 79.7272 19.0895 80.8233 18.283ZM76.7442 9.10506C77.4518 9.34146 78.2218 9.45966 79.0543 9.45966C79.8868 9.45966 80.303 9.23021 80.303 8.77132C80.303 8.22899 79.9631 7.95782 79.2832 7.95782C78.3536 7.95782 77.5073 8.34023 76.7442 9.10506Z" fill="#FB6376"/>
<path d="M88.7284 14.6535C88.7284 14.1529 88.4301 13.9026 87.8335 13.9026C87.2507 13.9026 86.6749 14.3615 86.1061 15.2793C85.5372 16.1832 85.1834 17.1079 85.0446 18.0535C85.0724 18.3734 85.1001 18.6932 85.1279 19.013C85.1556 19.3329 85.1695 19.6458 85.1695 19.9517C85.1695 20.6887 84.9267 21.1893 84.4411 21.4535C84.2191 21.5787 84.004 21.6969 83.7959 21.8081C83.6017 21.9194 83.3727 21.975 83.1091 21.975C82.8455 21.975 82.6096 21.8012 82.4015 21.4535C82.2072 21.092 82.1101 20.5357 82.1101 19.7848C82.1101 17.685 82.2627 15.8633 82.568 14.3198C83.0397 11.928 83.9763 9.36927 85.3776 6.64371C85.5719 6.26825 85.8563 6.08747 86.2309 6.10138C86.6056 6.10138 86.9108 6.35864 87.1467 6.87316C87.3825 7.38768 87.4935 7.81876 87.4797 8.16641C87.4797 8.51406 87.4242 8.85475 87.3132 9.18849C87.216 9.50833 87.0842 9.82817 86.9177 10.148C86.7651 10.4539 86.5847 10.7738 86.3766 11.1075C86.1824 11.4274 85.9881 11.775 85.7939 12.1505L85.4817 13.6523C86.0228 12.7484 86.7512 12.1435 87.667 11.8376C88 11.7263 88.3677 11.6707 88.77 11.6707C89.7135 11.6707 90.4281 11.8862 90.9137 12.3173C91.3993 12.7345 91.6421 13.3325 91.6421 14.1112C91.6421 14.876 91.538 15.6548 91.3299 16.4474C91.1357 17.24 90.99 17.8102 90.8929 18.1578C90.8096 18.4916 90.768 18.7697 90.768 18.9922C90.768 19.2147 90.8443 19.3259 90.9969 19.3259C91.205 19.3259 91.4617 19.1938 91.767 18.9296C92.0722 18.6654 92.3775 18.3803 92.6827 18.0744C92.988 17.7545 93.2655 17.4625 93.5152 17.1983C93.7788 16.9341 93.9592 16.802 94.0563 16.802C94.2506 16.802 94.3477 17.0384 94.3477 17.5112C94.3477 18.4846 93.869 19.4233 92.9116 20.3271C91.3022 21.2727 90.2754 21.7456 89.8314 21.7456C89.7898 21.7456 89.7621 21.7386 89.7482 21.7247C88.6382 21.7247 88.0832 20.8347 88.0832 19.0548C88.0832 18.2899 88.1526 17.5877 88.2913 16.948C88.444 16.3083 88.555 15.8425 88.6243 15.5505C88.6937 15.2584 88.7284 14.9595 88.7284 14.6535Z" fill="#FB6376"/>
<path d="M101.71 19.8891C100.614 21.1824 99.2955 21.829 97.7554 21.829C96.2291 21.829 95.0845 21.4396 94.3213 20.6609C93.5582 19.8682 93.1836 18.8879 93.1975 17.7198C93.1836 16.065 93.7039 14.6396 94.7584 13.4437C95.8129 12.2478 97.1934 11.6498 98.9 11.6498C99.677 11.6498 100.301 11.7472 100.773 11.9419C101.592 12.2756 102.001 12.5885 102.001 12.8805C102.001 13.103 101.425 13.2212 100.274 13.2351C99.1359 13.2351 98.1785 13.6314 97.4015 14.4241C96.6384 15.2028 96.2569 16.1901 96.2569 17.386C96.2569 18.0118 96.4373 18.5402 96.798 18.9713C97.1726 19.3885 97.6929 19.5971 98.3589 19.5971C99.0388 19.5971 99.6007 19.458 100.045 19.1799C99.0596 18.5124 98.567 17.546 98.567 16.2805C98.5532 15.613 98.789 15.0081 99.2746 14.4658C99.7741 13.9096 100.405 13.6314 101.169 13.6314C101.946 13.6175 102.501 13.8261 102.834 14.2572C103.167 14.6883 103.333 15.2445 103.333 15.9259C103.333 16.5934 103.173 17.3026 102.854 18.0535H102.979C103.59 18.0396 104.117 17.8241 104.561 17.4069C104.727 17.24 104.866 17.094 104.977 16.9689C105.102 16.8437 105.227 16.7811 105.352 16.7811C105.546 16.7811 105.643 17.0106 105.643 17.4695C105.643 18.3177 105.393 18.9574 104.894 19.3885C104.394 19.8057 103.839 20.0143 103.229 20.0143C102.632 20.0143 102.126 19.9725 101.71 19.8891ZM101.522 17.4695C101.758 16.9689 101.876 16.4822 101.876 16.0094C101.876 15.5366 101.724 15.3002 101.418 15.3002C101.293 15.3002 101.189 15.3905 101.106 15.5713C101.023 15.7521 100.981 15.9259 100.981 16.0928C100.981 16.649 101.162 17.1079 101.522 17.4695Z" fill="#FB6376"/>
<path d="M107.099 21.7247C105.712 21.7247 105.018 20.4245 105.018 17.8241C105.018 16.4057 105.192 15.1194 105.538 13.9652C106.08 12.1852 106.69 11.2952 107.37 11.2952C107.772 11.2952 108.091 11.5664 108.327 12.1087C108.522 12.5259 108.612 12.9361 108.598 13.3394C108.598 13.8957 108.431 14.876 108.098 16.2805C107.779 17.5042 107.62 18.2621 107.62 18.5541C107.62 18.8462 107.689 19.0478 107.828 19.159C107.98 19.2703 108.154 19.3259 108.348 19.3259C108.556 19.3259 108.813 19.1938 109.118 18.9296C109.423 18.6654 109.729 18.3803 110.034 18.0744C110.339 17.7545 110.617 17.4625 110.866 17.1983C111.13 16.9341 111.31 16.802 111.407 16.802C111.602 16.802 111.699 17.0384 111.699 17.5112C111.699 18.4846 111.206 19.4372 110.221 20.3689C109.25 21.2867 108.209 21.7386 107.099 21.7247ZM107.953 9.60567C107.578 9.04944 107.391 8.45148 107.391 7.81181C107.391 7.17213 107.488 6.64371 107.682 6.22653C107.89 5.79545 108.084 5.48256 108.265 5.28788C108.445 5.07929 108.653 4.975 108.889 4.975C109.278 4.975 109.632 5.26702 109.951 5.85107C110.27 6.42122 110.429 6.90097 110.429 7.29034C110.429 8.01344 110.173 8.58359 109.659 9.00076C109.16 9.40404 108.591 9.60567 107.953 9.60567Z" fill="#FB6376"/>
<path d="M118.921 16.7394C119.171 16.7394 119.296 16.955 119.296 17.386C119.296 17.8032 119.185 18.2552 118.963 18.7419C118.755 19.2286 118.428 19.7014 117.984 20.1603C117.554 20.6053 116.999 20.9877 116.319 21.3075C115.64 21.6273 114.835 21.7873 113.905 21.7873C112.99 21.7873 112.185 21.5161 111.491 20.9738C110.797 20.4175 110.45 19.6249 110.45 18.5959C110.45 17.5529 110.61 16.6143 110.929 15.7799C111.262 14.9316 111.692 14.2016 112.219 13.5897C112.761 12.9779 113.371 12.5051 114.051 12.1713C114.731 11.8237 115.376 11.6498 115.986 11.6498C117.055 11.6498 117.589 12.074 117.589 12.9222C117.589 13.4089 117.485 13.7983 117.277 14.0903C117.083 14.3824 116.881 14.5284 116.673 14.5284C116.396 14.5284 116.153 14.431 115.945 14.2363C115.737 14.0417 115.508 13.9443 115.258 13.9443C115.008 13.9304 114.766 14.0486 114.53 14.2989C114.308 14.5492 114.12 14.8691 113.968 15.2584C113.662 16.0372 113.51 16.948 113.51 17.9909C113.524 18.4916 113.753 18.867 114.197 19.1173C114.502 19.2842 114.863 19.3746 115.279 19.3885C115.695 19.3885 116.091 19.2494 116.465 18.9713C116.854 18.6932 117.207 18.3942 117.527 18.0744C117.846 17.7406 118.123 17.4347 118.359 17.1566C118.609 16.8785 118.796 16.7394 118.921 16.7394Z" fill="#FB6376"/>
<path d="M123.109 19.3885C124.191 19.3885 125.239 18.9574 126.252 18.0952C126.626 17.7754 126.932 17.4834 127.168 17.2192C127.403 16.9411 127.584 16.802 127.709 16.802C127.903 16.802 128 16.9967 128 17.386C128 17.7754 127.896 18.2134 127.688 18.7002C127.48 19.173 127.133 19.6388 126.647 20.0977C125.454 21.2241 123.817 21.7873 121.736 21.7873C120.084 21.7873 118.961 21.1893 118.364 19.9934C118.156 19.5762 118.052 18.9783 118.052 18.1995C118.052 17.4208 118.204 16.6143 118.51 15.7799C118.815 14.9316 119.217 14.2016 119.717 13.5897C120.23 12.9779 120.82 12.5051 121.486 12.1713C122.152 11.8237 122.859 11.6498 123.609 11.6498C124.372 11.6498 124.954 11.8376 125.357 12.213C125.773 12.5885 125.981 13.0752 125.981 13.6732C125.981 14.2711 125.829 14.7648 125.523 15.1541C125.232 15.5296 124.85 15.8494 124.379 16.1136C123.907 16.364 123.38 16.5934 122.797 16.802C122.228 16.9967 121.666 17.2192 121.111 17.4695V17.9909C121.125 18.4916 121.333 18.8462 121.736 19.0548C122.138 19.2633 122.596 19.3746 123.109 19.3885ZM122.755 13.5063C122.034 13.5063 121.534 14.3476 121.257 16.0302C121.548 15.8355 121.819 15.6617 122.069 15.5087C122.332 15.3558 122.561 15.2098 122.755 15.0707C123.172 14.7648 123.387 14.4171 123.401 14.0278C123.401 13.6801 123.185 13.5063 122.755 13.5063Z" fill="#FB6376"/>
<path d="M5.23756 17.6305L1.36404 16.2031C1.25723 16.1637 1.16508 16.0925 1.09999 15.9991C1.0349 15.9057 1 15.7945 1 15.6807C1 15.5668 1.0349 15.4557 1.09999 15.3623C1.16508 15.2689 1.25723 15.1977 1.36404 15.1583L5.23756 13.7309L6.6649 9.85741C6.70432 9.7506 6.77554 9.65845 6.86895 9.59336C6.96236 9.52827 7.07347 9.49337 7.18732 9.49337C7.30117 9.49337 7.41229 9.52827 7.5057 9.59336C7.59911 9.65845 7.67032 9.7506 7.70974 9.85741L9.13709 13.7309L13.0106 15.1583C13.1174 15.1977 13.2096 15.2689 13.2747 15.3623C13.3397 15.4557 13.3746 15.5668 13.3746 15.6807C13.3746 15.7945 13.3397 15.9057 13.2747 15.9991C13.2096 16.0925 13.1174 16.1637 13.0106 16.2031L9.13709 17.6305L7.70974 21.504C7.67032 21.6108 7.59911 21.7029 7.5057 21.768C7.41229 21.8331 7.30117 21.868 7.18732 21.868C7.07347 21.868 6.96236 21.8331 6.86895 21.768C6.77554 21.7029 6.70432 21.6108 6.6649 21.504L5.23756 17.6305Z" fill="#7A3E85"/>
<path d="M14 8.975C13.7239 8.975 13.5 9.19886 13.5 9.475V10.475H12.5C12.2239 10.475 12 10.6989 12 10.975C12 11.2511 12.2239 11.475 12.5 11.475H13.5V12.475C13.5 12.7511 13.7239 12.975 14 12.975C14.2761 12.975 14.5 12.7511 14.5 12.475V11.475H15.5C15.7761 11.475 16 11.2511 16 10.975C16 10.6989 15.7761 10.475 15.5 10.475H14.5V9.475C14.5 9.19886 14.2761 8.975 14 8.975Z" fill="#7A3E85"/>
<path d="M10.5 4.975C10.1548 4.975 9.875 5.25482 9.875 5.6V6.85H8.625C8.27982 6.85 8 7.12982 8 7.475C8 7.82018 8.27982 8.1 8.625 8.1H9.875V9.35C9.875 9.69518 10.1548 9.975 10.5 9.975C10.8452 9.975 11.125 9.69518 11.125 9.35V8.1H12.375C12.7202 8.1 13 7.82018 13 7.475C13 7.12982 12.7202 6.85 12.375 6.85H11.125V5.6C11.125 5.25482 10.8452 4.975 10.5 4.975Z" fill="#7A3E85"/>
<path d="M54.6249 10.834C54.2169 10.57 54.0129 10.162 54.0129 9.61001C54.0249 9.04601 54.2409 8.58401 54.6609 8.22401C55.0809 7.86401 55.5789 7.68401 56.1549 7.68401C56.4789 7.68401 56.7609 7.77401 57.0009 7.95401C57.2529 8.13401 57.3789 8.44601 57.3789 8.89001C57.3789 9.32201 57.2829 9.77201 57.0909 10.24C56.9109 10.696 56.6589 11.116 56.3349 11.5C56.0229 11.884 55.6569 12.202 55.2369 12.454C54.8289 12.706 54.4029 12.832 53.9589 12.832C53.7909 12.832 53.6109 12.802 53.4189 12.742C53.2269 12.67 53.1309 12.544 53.1309 12.364C53.1309 12.184 53.1909 12.046 53.3109 11.95C53.4429 11.854 53.5929 11.764 53.7609 11.68C53.9289 11.584 54.0909 11.476 54.2469 11.356C54.4149 11.236 54.5409 11.062 54.6249 10.834Z" fill="#7A3E85"/>
<path d="M62.021 13.012C62.825 13 63.425 13.15 63.821 13.462C64.217 13.762 64.415 14.2 64.415 14.776C64.415 15.34 64.241 15.826 63.893 16.234C63.557 16.63 63.143 16.912 62.651 17.08C62.999 17.44 63.311 17.806 63.587 18.178C63.875 18.55 64.019 18.94 64.019 19.348C64.019 20.152 63.701 20.776 63.065 21.22C62.429 21.652 61.541 21.868 60.401 21.868C59.273 21.868 58.427 21.646 57.863 21.202C57.299 20.746 57.017 20.236 57.017 19.672C57.017 19.096 57.155 18.574 57.431 18.106C57.719 17.638 58.025 17.404 58.349 17.404C58.541 17.404 58.679 17.476 58.763 17.62C58.847 17.752 59.003 18.148 59.231 18.808C59.315 19.048 59.453 19.276 59.645 19.492C60.089 19.984 60.791 20.23 61.751 20.23C61.607 19.774 61.373 19.384 61.049 19.06C60.737 18.724 60.425 18.4 60.113 18.088C59.801 17.776 59.525 17.446 59.285 17.098C59.045 16.738 58.925 16.318 58.925 15.838C58.925 14.974 59.249 14.272 59.897 13.732C60.509 13.252 61.217 13.012 62.021 13.012ZM61.949 16.342C62.429 15.826 62.669 15.412 62.669 15.1C62.669 14.956 62.615 14.83 62.507 14.722C62.411 14.602 62.267 14.542 62.075 14.542C61.883 14.542 61.697 14.566 61.517 14.614C61.349 14.662 61.211 14.698 61.103 14.722C61.103 15.178 61.385 15.718 61.949 16.342Z" fill="#7A3E85"/>
<path d="M28.7861 9.18898C28.7374 9.71723 28.7008 10.2275 28.6764 10.7197C28.6642 11.2119 28.6581 11.5901 28.6581 11.8542C28.6581 12.0943 28.6642 12.3225 28.6764 12.5386C28.6886 12.7547 28.7008 12.9347 28.713 13.0788H28.2923C28.1703 12.2024 27.9813 11.5121 27.7252 11.0078C27.4691 10.4916 27.1338 10.1314 26.7192 9.92733C26.3167 9.71123 25.8412 9.60318 25.2924 9.60318H24.5424C24.1888 9.60318 23.9205 9.63319 23.7376 9.69322C23.5547 9.75325 23.4327 9.8733 23.3718 10.0534C23.3108 10.2335 23.2803 10.5096 23.2803 10.8818V20.2462C23.2803 20.6184 23.3108 20.8945 23.3718 21.0746C23.4327 21.2547 23.5547 21.3747 23.7376 21.4347C23.9205 21.4948 24.1888 21.5248 24.5424 21.5248H25.4387C25.9875 21.5248 26.4692 21.4107 26.8838 21.1826C27.3106 20.9425 27.6703 20.5403 27.963 19.9761C28.2679 19.4118 28.4996 18.6494 28.6581 17.689H29.0788C29.0422 18.0732 29.0239 18.5774 29.0239 19.2017C29.0239 19.4778 29.03 19.868 29.0422 20.3722C29.0544 20.8765 29.091 21.3987 29.152 21.939C28.5301 21.915 27.8289 21.903 27.0484 21.903C26.268 21.891 25.5729 21.885 24.9631 21.885C24.6583 21.885 24.2681 21.885 23.7925 21.885C23.3169 21.885 22.8047 21.891 22.256 21.903C21.7072 21.903 21.1523 21.909 20.5914 21.921C20.0304 21.921 19.5 21.927 19 21.939V21.5788C19.3902 21.5548 19.6829 21.5068 19.878 21.4347C20.0731 21.3627 20.2012 21.2186 20.2621 21.0025C20.3353 20.7864 20.3719 20.4623 20.3719 20.0301V11.0979C20.3719 10.6537 20.3353 10.3295 20.2621 10.1254C20.2012 9.90932 20.067 9.76525 19.8597 9.69322C19.6646 9.60918 19.378 9.56116 19 9.54915V9.18898C19.5 9.20099 20.0304 9.21299 20.5914 9.225C21.1523 9.225 21.7072 9.231 22.256 9.24301C22.8047 9.24301 23.3169 9.24301 23.7925 9.24301C24.2681 9.24301 24.6583 9.24301 24.9631 9.24301C25.5241 9.24301 26.1582 9.24301 26.8655 9.24301C27.585 9.231 28.2252 9.21299 28.7861 9.18898ZM25.9326 15.3479C25.9326 15.3479 25.9326 15.4079 25.9326 15.528C25.9326 15.648 25.9326 15.708 25.9326 15.708H22.7315C22.7315 15.708 22.7315 15.648 22.7315 15.528C22.7315 15.4079 22.7315 15.3479 22.7315 15.3479H25.9326ZM26.4631 12.9708C26.4143 13.6551 26.3899 14.1773 26.3899 14.5375C26.4021 14.8977 26.4082 15.2278 26.4082 15.528C26.4082 15.8281 26.4143 16.1583 26.4265 16.5184C26.4387 16.8786 26.4692 17.4008 26.518 18.0852H26.0972C26.0363 17.665 25.9204 17.2748 25.7497 16.9146C25.5912 16.5544 25.3595 16.2663 25.0546 16.0502C24.7497 15.8221 24.3534 15.708 23.8656 15.708V15.3479C24.2315 15.3479 24.5424 15.2758 24.7985 15.1318C25.0546 14.9757 25.2619 14.7776 25.4204 14.5375C25.5912 14.2854 25.7253 14.0213 25.8229 13.7451C25.9204 13.469 25.9936 13.2109 26.0424 12.9708H26.4631ZM25.7497 5.11907C26.0058 4.975 26.2802 4.93898 26.5728 5.01102C26.8777 5.07104 27.0972 5.23912 27.2313 5.51525C27.3533 5.74336 27.3655 5.98347 27.2679 6.23559C27.1826 6.48771 26.9996 6.69181 26.7192 6.84788C26.4509 6.99195 26.1521 7.106 25.8229 7.19004C25.4936 7.26207 25.0973 7.35812 24.6339 7.47818C24.1705 7.59823 23.5974 7.78432 22.9145 8.03644L22.7864 7.82034C23.3718 7.35212 23.823 6.94393 24.14 6.59576C24.4693 6.2476 24.7497 5.95346 24.9814 5.71335C25.2131 5.46123 25.4692 5.26313 25.7497 5.11907Z" fill="#7A3E85"/>
<path d="M42.2124 9.18898V9.54915C41.9441 9.6452 41.6575 9.85529 41.3527 10.1794C41.06 10.5036 40.7856 11.0078 40.5295 11.6922L36.6699 21.975C36.5724 21.963 36.4687 21.957 36.359 21.957C36.2492 21.957 36.1395 21.957 36.0297 21.957C35.9322 21.957 35.8285 21.957 35.7188 21.957C35.609 21.957 35.5054 21.963 35.4078 21.975L30.7434 10.7017C30.5727 10.2695 30.3836 9.97535 30.1763 9.81928C29.969 9.6512 29.7739 9.56116 29.591 9.54915V9.18898C29.9568 9.20099 30.3836 9.21299 30.8714 9.225C31.3714 9.237 31.8714 9.24301 32.3714 9.24301C32.9323 9.24301 33.4567 9.237 33.9445 9.225C34.4444 9.21299 34.8469 9.20099 35.1517 9.18898V9.54915C34.7615 9.56116 34.4566 9.60918 34.2371 9.69322C34.0176 9.76525 33.8957 9.90932 33.8713 10.1254C33.8469 10.3295 33.9201 10.6417 34.0908 11.0619L37.4199 19.3998L37.0358 19.85L39.5601 13.1508C39.8893 12.2504 40.06 11.5421 40.0722 11.0258C40.0844 10.5096 39.9564 10.1374 39.6881 9.90932C39.4198 9.68121 39.0357 9.56116 38.5357 9.54915V9.18898C38.9503 9.20099 39.3406 9.21299 39.7064 9.225C40.0722 9.237 40.4442 9.24301 40.8222 9.24301C41.0905 9.24301 41.3405 9.237 41.5722 9.225C41.816 9.21299 42.0295 9.20099 42.2124 9.18898Z" fill="#7A3E85"/>
<path d="M47.4027 9.15296L51.8476 20.4263C52.0183 20.8585 52.2074 21.1586 52.4147 21.3267C52.6342 21.4828 52.8293 21.5668 53 21.5788V21.939C52.6342 21.915 52.2013 21.903 51.7013 21.903C51.2135 21.891 50.7196 21.885 50.2196 21.885C49.6587 21.885 49.1282 21.891 48.6282 21.903C48.1283 21.903 47.7319 21.915 47.4393 21.939V21.5788C48.0612 21.5548 48.4514 21.4528 48.61 21.2727C48.7807 21.0806 48.7441 20.6784 48.5002 20.0661L45.3906 11.6922L45.7198 11.2239L42.9395 18.3553C42.6712 19.0156 42.5066 19.5559 42.4456 19.9761C42.3968 20.3963 42.4273 20.7204 42.5371 20.9485C42.659 21.1766 42.848 21.3387 43.1041 21.4347C43.3724 21.5188 43.6894 21.5668 44.0553 21.5788V21.939C43.6529 21.915 43.2687 21.903 42.9029 21.903C42.5371 21.891 42.1651 21.885 41.7871 21.885C41.5188 21.885 41.2627 21.891 41.0188 21.903C40.7871 21.903 40.5798 21.915 40.3969 21.939V21.5788C40.653 21.5308 40.9152 21.3687 41.1835 21.0926C41.4517 20.8165 41.7139 20.3482 41.97 19.6879L46.1406 9.15296C46.3357 9.16497 46.543 9.17097 46.7625 9.17097C46.9942 9.17097 47.2076 9.16497 47.4027 9.15296ZM48.6831 16.7525V17.1127H43.2321L43.4151 16.7525H48.6831Z" fill="#7A3E85"/>
</svg>
